<svg width="832" height="832" viewBox="0 0 832 832" fill="none" xmlns="http://www.w3.org/2000/svg">
<g clip-path="url(#clip0_13_643)">
<rect width="832" height="832" rx="190" fill="#030303"/>
<g filter="url(#filter0_dddd_13_643)">
<rect width="56" height="56" rx="20" transform="matrix(1 0 0 -1 136 472)" fill="#4E4E4E"/>
<rect width="56" height="56" rx="20" transform="matrix(1 0 0 -1 192 528)" fill="#6B6B6B"/>
<rect width="56" height="56" rx="20" transform="matrix(1 0 0 -1 248 584)" fill="#6B6B6B"/>
<rect width="56" height="56" rx="20" transform="matrix(1 0 0 -1 304 528)" fill="#6B6B6B"/>
<rect width="56" height="56" rx="20" transform="matrix(1 0 0 -1 360 472)" fill="#4E4E4E"/>
<rect width="56" height="56" rx="20" transform="matrix(1 0 0 -1 416 416)" fill="#4E4E4E"/>
<rect width="56" height="56" rx="20" transform="matrix(1 0 0 -1 472 360)" fill="#6B6B6B"/>
<rect width="56" height="56" rx="20" transform="matrix(1 0 0 -1 528 304)" fill="#6B6B6B"/>
<rect width="56" height="56" rx="20" transform="matrix(1 0 0 -1 584 360)" fill="#6B6B6B"/>
<rect width="56" height="56" rx="20" transform="matrix(1 0 0 -1 640 416)" fill="#4E4E4E"/>
</g>
</g>
<defs>
<filter id="filter0_dddd_13_643" x="-5" y="205" width="842" height="757" filterUnits="userSpaceOnUse" color-interpolation-filters="sRGB">
<feFlood flood-opacity="0" result="BackgroundImageFix"/>
<feColorMatrix in="SourceAlpha" type="matrix" values="0 0 0 0 0 0 0 0 0 0 0 0 0 0 0 0 0 0 127 0" result="hardAlpha"/>
<feOffset dy="16"/>
<feGaussianBlur stdDeviation="17.5"/>
<feColorMatrix type="matrix" values="0 0 0 0 1 0 0 0 0 1 0 0 0 0 1 0 0 0 0.17 0"/>
<feBlend mode="normal" in2="BackgroundImageFix" result="effect1_dropShadow_13_643"/>
<feColorMatrix in="SourceAlpha" type="matrix" values="0 0 0 0 0 0 0 0 0 0 0 0 0 0 0 0 0 0 127 0" result="hardAlpha"/>
<feOffset dy="63"/>
<feGaussianBlur stdDeviation="31.5"/>
<feColorMatrix type="matrix" values="0 0 0 0 1 0 0 0 0 1 0 0 0 0 1 0 0 0 0.15 0"/>
<feBlend mode="normal" in2="effect1_dropShadow_13_643" result="effect2_dropShadow_13_643"/>
<feColorMatrix in="SourceAlpha" type="matrix" values="0 0 0 0 0 0 0 0 0 0 0 0 0 0 0 0 0 0 127 0" result="hardAlpha"/>
<feOffset dy="142"/>
<feGaussianBlur stdDeviation="42.5"/>
<feColorMatrix type="matrix" values="0 0 0 0 1 0 0 0 0 1 0 0 0 0 1 0 0 0 0.09 0"/>
<feBlend mode="normal" in2="effect2_dropShadow_13_643" result="effect3_dropShadow_13_643"/>
<feColorMatrix in="SourceAlpha" type="matrix" values="0 0 0 0 0 0 0 0 0 0 0 0 0 0 0 0 0 0 127 0" result="hardAlpha"/>
<feOffset dy="253"/>
<feGaussianBlur stdDeviation="50.5"/>
<feColorMatrix type="matrix" values="0 0 0 0 1 0 0 0 0 1 0 0 0 0 1 0 0 0 0.03 0"/>
<feBlend mode="normal" in2="effect3_dropShadow_13_643" result="effect4_dropShadow_13_643"/>
<feBlend mode="normal" in="SourceGraphic" in2="effect4_dropShadow_13_643" result="shape"/>
</filter>
<clipPath id="clip0_13_643">
<rect width="832" height="832" rx="190" fill="white"/>
</clipPath>
</defs>
</svg>
