<svg width="22" height="22" viewBox="0 0 22 22" fill="none" xmlns="http://www.w3.org/2000/svg">
<rect width="2.59247" height="2.59247" rx="0.67337" transform="matrix(1 0 0 -1 1.65085 13.8333)" fill="white"/>
<rect width="2.59247" height="2.59247" rx="0.67337" transform="matrix(1 0 0 -1 4.24335 16.4253)" fill="white"/>
<rect width="2.59247" height="2.59247" rx="0.67337" transform="matrix(1 0 0 -1 6.83578 13.8333)" fill="white"/>
<rect width="2.59247" height="2.59247" rx="0.67337" transform="matrix(1 0 0 -1 9.42828 11.2405)" fill="white"/>
<rect width="2.59247" height="2.59247" rx="0.67337" transform="matrix(1 0 0 -1 12.0208 8.64795)" fill="white"/>
<rect width="2.59247" height="2.59247" rx="0.67337" transform="matrix(1 0 0 -1 14.7142 6.39258)" fill="white"/>
<rect width="2.59247" height="2.59247" rx="0.67337" transform="matrix(1 0 0 -1 17.3067 8.98511)" fill="white"/>
</svg>
